<svg width="30" height="30" viewBox="0 0 30 30" fill="none" xmlns="http://www.w3.org/2000/svg">
<path fill-rule="evenodd" clip-rule="evenodd" d="M15.0029 2.70182C19.0115 2.70182 19.4862 2.7194 21.0627 2.78973C22.5278 2.8542 23.319 3.10034 23.8465 3.30546C24.5439 3.57504 25.0479 3.90323 25.5694 4.42481C26.0969 4.95226 26.4192 5.45041 26.6888 6.14781C26.8939 6.67525 27.1401 7.47228 27.2045 8.93155C27.2749 10.5139 27.2924 10.9886 27.2924 14.9913C27.2924 18.9999 27.2749 19.4746 27.2045 21.0511C27.1401 22.5162 26.8939 23.3074 26.6888 23.8349C26.4192 24.5323 26.091 25.0363 25.5694 25.5578C25.042 26.0853 24.5439 26.4076 23.8465 26.6772C23.319 26.8823 22.522 27.1285 21.0627 27.1929C19.4804 27.2633 19.0057 27.2808 15.0029 27.2808C10.9943 27.2808 10.5196 27.2633 8.94315 27.1929C7.47802 27.1285 6.68685 26.8823 6.15941 26.6772C5.46201 26.4076 4.958 26.0794 4.43641 25.5578C3.90897 25.0304 3.58664 24.5323 3.31705 23.8349C3.11194 23.3074 2.86579 22.5104 2.80133 21.0511C2.731 19.4688 2.71342 18.9941 2.71342 14.9913C2.71342 10.9827 2.731 10.508 2.80133 8.93155C2.86579 7.46642 3.11194 6.67525 3.31705 6.14781C3.58664 5.45041 3.91483 4.9464 4.43641 4.42481C4.96386 3.89737 5.46201 3.57504 6.15941 3.30546C6.68685 3.10034 7.48388 2.8542 8.94315 2.78973C10.5196 2.7194 10.9943 2.70182 15.0029 2.70182ZM15.0029 0.00012207C10.9299 0.00012207 10.42 0.0177036 8.82008 0.0880299C7.22602 0.158356 6.1301 0.416219 5.1807 0.785432C4.19027 1.17223 3.35222 1.68209 2.52002 2.52015C1.68197 3.35234 1.1721 4.19039 0.78531 5.17496C0.416097 6.13023 0.158234 7.22028 0.0879078 8.81434C0.0175816 10.4201 0 10.93 0 15.0031C0 19.0761 0.0175816 19.586 0.0879078 21.1859C0.158234 22.78 0.416097 23.8759 0.78531 24.8253C1.1721 25.8157 1.68197 26.6538 2.52002 27.486C3.35222 28.3182 4.19027 28.8339 5.17484 29.2148C6.1301 29.584 7.22016 29.8419 8.81422 29.9122C10.4141 29.9825 10.924 30.0001 14.9971 30.0001C19.0701 30.0001 19.58 29.9825 21.1799 29.9122C22.774 29.8419 23.8699 29.584 24.8193 29.2148C25.8039 28.8339 26.6419 28.3182 27.4741 27.486C28.3063 26.6538 28.822 25.8157 29.203 24.8311C29.5722 23.8759 29.83 22.7858 29.9004 21.1918C29.9707 19.5918 29.9883 19.082 29.9883 15.0089C29.9883 10.9359 29.9707 10.426 29.9004 8.82607C29.83 7.232 29.5722 6.13609 29.203 5.18668C28.8338 4.19039 28.3239 3.35234 27.4858 2.52015C26.6536 1.68795 25.8156 1.17223 24.831 0.791292C23.8758 0.422079 22.7857 0.164217 21.1916 0.0938904C19.5859 0.0177036 19.076 0.00012207 15.0029 0.00012207ZM15.0029 7.29647C10.7482 7.29647 7.29635 10.7483 7.29635 15.0031C7.29635 19.2578 10.7482 22.7096 15.0029 22.7096C19.2577 22.7096 22.7095 19.2578 22.7095 15.0031C22.7095 10.7483 19.2577 7.29647 15.0029 7.29647ZM15.0029 20.0021C12.2426 20.0021 10.0039 17.7634 10.0039 15.0031C10.0039 12.2427 12.2426 10.004 15.0029 10.004C17.7632 10.004 20.002 12.2427 20.002 15.0031C20.002 17.7634 17.7632 20.0021 15.0029 20.0021ZM23.0143 8.79085C24.0047 8.79085 24.8134 7.98796 24.8134 6.99167C24.8134 6.00124 24.0047 5.19249 23.0143 5.19249C22.0238 5.19249 21.2151 5.99538 21.2151 6.99167C21.2151 7.9821 22.018 8.79085 23.0143 8.79085Z" fill="#212529"/>
</svg>
