<svg width="70" height="70" viewBox="0 0 70 70" fill="none" xmlns="http://www.w3.org/2000/svg">
<mask id="mask0_445_30" style="mask-type:luminance" maskUnits="userSpaceOnUse" x="0" y="0" width="70" height="70">
<path d="M0.13665 29.1223L40.8777 0.136647L69.8633 40.8777L29.1223 69.8633L0.13665 29.1223Z" fill="white"/>
</mask>
<g mask="url(#mask0_445_30)">
<path d="M26.0352 37.0026C27.1626 35.3529 29.7054 35.7816 30.2306 37.711L33.3426 49.1387C33.4116 49.3919 33.4158 49.6583 33.3548 49.9135C33.2937 50.1686 33.1694 50.4043 32.9933 50.5988C32.8172 50.7933 32.5949 50.9402 32.347 51.0262C32.0991 51.1121 31.8336 51.1343 31.5749 51.0906L20.3794 49.2031C20.1209 49.1593 19.8776 49.0513 19.6719 48.8888C19.4662 48.7264 19.3046 48.5148 19.2021 48.2735C19.0996 48.0323 19.0595 47.7691 19.0853 47.5083C19.1112 47.2474 19.2023 46.9973 19.3502 46.7809L26.0352 37.0026Z" fill="url(#paint0_linear_445_30)"/>
<path d="M26.0352 37.0026C27.1626 35.3529 29.7054 35.7816 30.2306 37.711L33.3426 49.1387C33.4116 49.3919 33.4158 49.6583 33.3548 49.9135C33.2937 50.1686 33.1694 50.4043 32.9933 50.5988C32.8172 50.7933 32.5949 50.9402 32.347 51.0262C32.0991 51.1121 31.8336 51.1343 31.5749 51.0906L20.3794 49.2031C20.1209 49.1593 19.8776 49.0513 19.6719 48.8888C19.4662 48.7264 19.3046 48.5148 19.2021 48.2735C19.0996 48.0323 19.0595 47.7691 19.0853 47.5083C19.1112 47.2474 19.2023 46.9973 19.3502 46.7809L26.0352 37.0026Z" fill="url(#paint1_radial_445_30)"/>
<path d="M26.0352 37.0026C27.1626 35.3529 29.7054 35.7816 30.2306 37.711L33.3426 49.1387C33.4116 49.3919 33.4158 49.6583 33.3548 49.9135C33.2937 50.1686 33.1694 50.4043 32.9933 50.5988C32.8172 50.7933 32.5949 50.9402 32.347 51.0262C32.0991 51.1121 31.8336 51.1343 31.5749 51.0906L20.3794 49.2031C20.1209 49.1593 19.8776 49.0513 19.6719 48.8888C19.4662 48.7264 19.3046 48.5148 19.2021 48.2735C19.0996 48.0323 19.0595 47.7691 19.0853 47.5083C19.1112 47.2474 19.2023 46.9973 19.3502 46.7809L26.0352 37.0026Z" fill="url(#paint2_linear_445_30)"/>
<path d="M39.1089 39.2066C40.2363 37.5569 42.7792 37.9856 43.3043 39.9151L46.4138 51.3446C46.4826 51.5975 46.4866 51.8637 46.4255 52.1186C46.3645 52.3736 46.2402 52.609 46.0643 52.8033C45.8884 52.9976 45.6664 53.1446 45.4187 53.2306C45.1711 53.3166 44.9059 53.3389 44.6473 53.2955L33.4519 51.4081C33.1934 51.3643 32.9501 51.2562 32.7444 51.0938C32.5387 50.9313 32.3771 50.7198 32.2746 50.4785C32.1721 50.2372 32.1319 49.9741 32.1578 49.7132C32.1837 49.4524 32.2748 49.2022 32.4227 48.9858L39.1089 39.2066Z" fill="url(#paint3_linear_445_30)"/>
<path d="M39.1089 39.2066C40.2363 37.5569 42.7792 37.9856 43.3043 39.9151L46.4138 51.3446C46.4826 51.5975 46.4866 51.8637 46.4255 52.1186C46.3645 52.3736 46.2402 52.609 46.0643 52.8033C45.8884 52.9976 45.6664 53.1446 45.4187 53.2306C45.1711 53.3166 44.9059 53.3389 44.6473 53.2955L33.4519 51.4081C33.1934 51.3643 32.9501 51.2562 32.7444 51.0938C32.5387 50.9313 32.3771 50.7198 32.2746 50.4785C32.1721 50.2372 32.1319 49.9741 32.1578 49.7132C32.1837 49.4524 32.2748 49.2022 32.4227 48.9858L39.1089 39.2066Z" fill="url(#paint4_radial_445_30)"/>
<path d="M39.1089 39.2066C40.2363 37.5569 42.7792 37.9856 43.3043 39.9151L46.4138 51.3446C46.4826 51.5975 46.4866 51.8637 46.4255 52.1186C46.3645 52.3736 46.2402 52.609 46.0643 52.8033C45.8884 52.9976 45.6664 53.1446 45.4187 53.2306C45.1711 53.3166 44.9059 53.3389 44.6473 53.2955L33.4519 51.4081C33.1934 51.3643 32.9501 51.2562 32.7444 51.0938C32.5387 50.9313 32.3771 50.7198 32.2746 50.4785C32.1721 50.2372 32.1319 49.9741 32.1578 49.7132C32.1837 49.4524 32.2748 49.2022 32.4227 48.9858L39.1089 39.2066Z" fill="url(#paint5_radial_445_30)"/>
<g filter="url(#filter0_i_445_30)">
<path d="M31.8711 13.3523C31.8961 13.3137 31.9319 13.2833 31.974 13.2649C32.0162 13.2465 32.0628 13.2409 32.1081 13.2488L44.9721 15.468C45.0174 15.4757 45.0594 15.4965 45.0929 15.5278C45.1265 15.5592 45.1501 15.5997 45.1608 15.6444C46.4997 21.3267 47.3594 27.7718 46.4048 33.4406C45.4739 38.9621 41.9728 45.5931 38.4841 51.1203L26.5185 49.1019C25.0348 42.7364 23.9022 35.3253 24.8331 29.8038C25.7919 24.1167 28.7313 18.2918 31.8707 13.3544" fill="url(#paint6_linear_445_30)"/>
<path d="M31.8711 13.3523C31.8961 13.3137 31.9319 13.2833 31.974 13.2649C32.0162 13.2465 32.0628 13.2409 32.1081 13.2488L44.9721 15.468C45.0174 15.4757 45.0594 15.4965 45.0929 15.5278C45.1265 15.5592 45.1501 15.5997 45.1608 15.6444C46.4997 21.3267 47.3594 27.7718 46.4048 33.4406C45.4739 38.9621 41.9728 45.5931 38.4841 51.1203L26.5185 49.1019C25.0348 42.7364 23.9022 35.3253 24.8331 29.8038C25.7919 24.1167 28.7313 18.2918 31.8707 13.3544" fill="url(#paint7_radial_445_30)"/>
<path d="M31.8711 13.3523C31.8961 13.3137 31.9319 13.2833 31.974 13.2649C32.0162 13.2465 32.0628 13.2409 32.1081 13.2488L44.9721 15.468C45.0174 15.4757 45.0594 15.4965 45.0929 15.5278C45.1265 15.5592 45.1501 15.5997 45.1608 15.6444C46.4997 21.3267 47.3594 27.7718 46.4048 33.4406C45.4739 38.9621 41.9728 45.5931 38.4841 51.1203L26.5185 49.1019C25.0348 42.7364 23.9022 35.3253 24.8331 29.8038C25.7919 24.1167 28.7313 18.2918 31.8707 13.3544" fill="url(#paint8_radial_445_30)"/>
<path d="M31.8711 13.3523C31.8961 13.3137 31.9319 13.2833 31.974 13.2649C32.0162 13.2465 32.0628 13.2409 32.1081 13.2488L44.9721 15.468C45.0174 15.4757 45.0594 15.4965 45.0929 15.5278C45.1265 15.5592 45.1501 15.5997 45.1608 15.6444C46.4997 21.3267 47.3594 27.7718 46.4048 33.4406C45.4739 38.9621 41.9728 45.5931 38.4841 51.1203L26.5185 49.1019C25.0348 42.7364 23.9022 35.3253 24.8331 29.8038C25.7919 24.1167 28.7313 18.2918 31.8707 13.3544" fill="url(#paint9_radial_445_30)"/>
<path d="M31.8711 13.3523C31.8961 13.3137 31.9319 13.2833 31.974 13.2649C32.0162 13.2465 32.0628 13.2409 32.1081 13.2488L44.9721 15.468C45.0174 15.4757 45.0594 15.4965 45.0929 15.5278C45.1265 15.5592 45.1501 15.5997 45.1608 15.6444C46.4997 21.3267 47.3594 27.7718 46.4048 33.4406C45.4739 38.9621 41.9728 45.5931 38.4841 51.1203L26.5185 49.1019C25.0348 42.7364 23.9022 35.3253 24.8331 29.8038C25.7919 24.1167 28.7313 18.2918 31.8707 13.3544" fill="url(#paint10_radial_445_30)"/>
</g>
<g filter="url(#filter1_dii_445_30)">
<path d="M41.349 21.014C41.7629 21.5749 42.0609 22.2126 42.2256 22.8899C42.3904 23.5672 42.4186 24.2706 42.3086 24.9589C42.1987 25.6472 41.9528 26.3068 41.5852 26.8991C41.2177 27.4913 40.7358 28.0045 40.1679 28.4086C39.5999 28.8127 38.9571 29.0996 38.2771 29.2527C37.597 29.4057 36.8933 29.4218 36.207 29.3C35.5206 29.1782 34.8654 28.9209 34.2796 28.5432C33.6937 28.1655 33.1889 27.6749 32.7947 27.1C32.0161 25.9647 31.7146 24.5689 31.9551 23.2134C32.1957 21.8579 32.9591 20.6511 34.0809 19.853C35.2026 19.0549 36.593 18.7294 37.9525 18.9465C39.3119 19.1637 40.5317 19.9061 41.349 21.014Z" fill="url(#paint11_linear_445_30)"/>
<path d="M41.349 21.014C41.7629 21.5749 42.0609 22.2126 42.2256 22.8899C42.3904 23.5672 42.4186 24.2706 42.3086 24.9589C42.1987 25.6472 41.9528 26.3068 41.5852 26.8991C41.2177 27.4913 40.7358 28.0045 40.1679 28.4086C39.5999 28.8127 38.9571 29.0996 38.2771 29.2527C37.597 29.4057 36.8933 29.4218 36.207 29.3C35.5206 29.1782 34.8654 28.9209 34.2796 28.5432C33.6937 28.1655 33.1889 27.6749 32.7947 27.1C32.0161 25.9647 31.7146 24.5689 31.9551 23.2134C32.1957 21.8579 32.9591 20.6511 34.0809 19.853C35.2026 19.0549 36.593 18.7294 37.9525 18.9465C39.3119 19.1637 40.5317 19.9061 41.349 21.014Z" fill="url(#paint12_radial_445_30)"/>
</g>
<path d="M40.0325 21.9504C40.321 22.3386 40.5291 22.7804 40.6446 23.25C40.7601 23.7196 40.7808 24.2076 40.7053 24.6853C40.6299 25.163 40.4598 25.6208 40.2052 26.0319C39.9506 26.4431 39.6164 26.7993 39.2223 27.0796C38.8283 27.36 38.3822 27.5589 37.9103 27.6646C37.4384 27.7704 36.9502 27.7809 36.4741 27.6956C35.9981 27.6103 35.5439 27.4308 35.1381 27.1677C34.7324 26.9045 34.3832 26.5631 34.111 26.1633C33.576 25.3773 33.3703 24.4129 33.5381 23.4769C33.7059 22.541 34.2338 21.7081 35.0086 21.1569C35.7833 20.6057 36.7433 20.38 37.6825 20.5284C38.6217 20.6767 39.4653 21.1872 40.0325 21.9504Z" fill="url(#paint13_radial_445_30)"/>
<g filter="url(#filter2_i_445_30)">
<path d="M29.9727 64.528C28.4322 64.2682 24.3517 57.7674 26.6288 54.2298C26.6288 54.2298 28.9059 50.6921 32.4062 51.2699C35.9066 51.8477 36.6178 54.7934 36.6178 54.7934C37.6389 58.1342 34.5703 61.9339 33.7989 61.8039C33.374 61.7322 33.4993 60.9623 33.1594 60.905C32.8186 60.8464 32.6726 61.2935 32.1296 62.3146C31.7425 63.0426 30.5894 64.6319 29.9727 64.528Z" fill="url(#paint14_radial_445_30)"/>
<path d="M29.9727 64.528C28.4322 64.2682 24.3517 57.7674 26.6288 54.2298C26.6288 54.2298 28.9059 50.6921 32.4062 51.2699C35.9066 51.8477 36.6178 54.7934 36.6178 54.7934C37.6389 58.1342 34.5703 61.9339 33.7989 61.8039C33.374 61.7322 33.4993 60.9623 33.1594 60.905C32.8186 60.8464 32.6726 61.2935 32.1296 62.3146C31.7425 63.0426 30.5894 64.6319 29.9727 64.528Z" fill="url(#paint15_radial_445_30)"/>
</g>
<path d="M26.8577 50.3468C26.9088 50.0432 27.0192 49.7526 27.1826 49.4916C27.3461 49.2307 27.5593 49.0045 27.8102 48.826C28.0611 48.6475 28.3447 48.5202 28.6448 48.4513C28.945 48.3825 29.2557 48.3734 29.5593 48.4247L37.2628 49.7246C37.8616 49.8426 38.3908 50.1895 38.7377 50.6916C39.0847 51.1937 39.2222 51.8113 39.1208 52.4132C39.0195 53.015 38.6874 53.5536 38.1952 53.9144C37.7029 54.2752 37.0894 54.4298 36.4849 54.3452L28.7798 53.0485C28.4761 52.9974 28.1855 52.8869 27.9246 52.7235C27.6636 52.5601 27.4374 52.3468 27.2589 52.0959C27.0804 51.845 26.9531 51.5614 26.8843 51.2613C26.8154 50.9612 26.8064 50.6504 26.8577 50.3468Z" fill="url(#paint16_linear_445_30)"/>
<path d="M26.8577 50.3468C26.9088 50.0432 27.0192 49.7526 27.1826 49.4916C27.3461 49.2307 27.5593 49.0045 27.8102 48.826C28.0611 48.6475 28.3447 48.5202 28.6448 48.4513C28.945 48.3825 29.2557 48.3734 29.5593 48.4247L37.2628 49.7246C37.8616 49.8426 38.3908 50.1895 38.7377 50.6916C39.0847 51.1937 39.2222 51.8113 39.1208 52.4132C39.0195 53.015 38.6874 53.5536 38.1952 53.9144C37.7029 54.2752 37.0894 54.4298 36.4849 54.3452L28.7798 53.0485C28.4761 52.9974 28.1855 52.8869 27.9246 52.7235C27.6636 52.5601 27.4374 52.3468 27.2589 52.0959C27.0804 51.845 26.9531 51.5614 26.8843 51.2613C26.8154 50.9612 26.8064 50.6504 26.8577 50.3468Z" fill="url(#paint17_radial_445_30)"/>
<path d="M26.8577 50.3468C26.9088 50.0432 27.0192 49.7526 27.1826 49.4916C27.3461 49.2307 27.5593 49.0045 27.8102 48.826C28.0611 48.6475 28.3447 48.5202 28.6448 48.4513C28.945 48.3825 29.2557 48.3734 29.5593 48.4247L37.2628 49.7246C37.8616 49.8426 38.3908 50.1895 38.7377 50.6916C39.0847 51.1937 39.2222 51.8113 39.1208 52.4132C39.0195 53.015 38.6874 53.5536 38.1952 53.9144C37.7029 54.2752 37.0894 54.4298 36.4849 54.3452L28.7798 53.0485C28.4761 52.9974 28.1855 52.8869 27.9246 52.7235C27.6636 52.5601 27.4374 52.3468 27.2589 52.0959C27.0804 51.845 26.9531 51.5614 26.8843 51.2613C26.8154 50.9612 26.8064 50.6504 26.8577 50.3468Z" fill="url(#paint18_radial_445_30)"/>
<path d="M39.8778 6.35355C37.8143 6.00567 35.7965 7.64643 34.6328 9.27208C33.7541 10.4975 32.9061 11.7447 32.0896 13.0125C32.0757 13.0342 32.0674 13.0589 32.0653 13.0846C32.0633 13.1103 32.0676 13.136 32.078 13.1596C32.0883 13.1832 32.1043 13.2039 32.1245 13.2198C32.1448 13.2357 32.1686 13.2464 32.194 13.2508L44.8891 15.4348C44.9142 15.4387 44.94 15.4364 44.964 15.4281C44.9881 15.4198 45.0098 15.4057 45.0272 15.3871C45.0445 15.3685 45.0571 15.3459 45.0638 15.3213C45.0705 15.2967 45.071 15.2709 45.0654 15.2461C44.7069 13.7645 44.311 12.2923 43.8782 10.8308C43.3186 8.93924 42.4163 6.78152 39.8778 6.35355Z" fill="url(#paint19_linear_445_30)"/>
<path d="M39.8778 6.35355C37.8143 6.00567 35.7965 7.64643 34.6328 9.27208C33.7541 10.4975 32.9061 11.7447 32.0896 13.0125C32.0757 13.0342 32.0674 13.0589 32.0653 13.0846C32.0633 13.1103 32.0676 13.136 32.078 13.1596C32.0883 13.1832 32.1043 13.2039 32.1245 13.2198C32.1448 13.2357 32.1686 13.2464 32.194 13.2508L44.8891 15.4348C44.9142 15.4387 44.94 15.4364 44.964 15.4281C44.9881 15.4198 45.0098 15.4057 45.0272 15.3871C45.0445 15.3685 45.0571 15.3459 45.0638 15.3213C45.0705 15.2967 45.071 15.2709 45.0654 15.2461C44.7069 13.7645 44.311 12.2923 43.8782 10.8308C43.3186 8.93924 42.4163 6.78152 39.8778 6.35355Z" fill="url(#paint20_radial_445_30)"/>
<path d="M39.8778 6.35355C37.8143 6.00567 35.7965 7.64643 34.6328 9.27208C33.7541 10.4975 32.9061 11.7447 32.0896 13.0125C32.0757 13.0342 32.0674 13.0589 32.0653 13.0846C32.0633 13.1103 32.0676 13.136 32.078 13.1596C32.0883 13.1832 32.1043 13.2039 32.1245 13.2198C32.1448 13.2357 32.1686 13.2464 32.194 13.2508L44.8891 15.4348C44.9142 15.4387 44.94 15.4364 44.964 15.4281C44.9881 15.4198 45.0098 15.4057 45.0272 15.3871C45.0445 15.3685 45.0571 15.3459 45.0638 15.3213C45.0705 15.2967 45.071 15.2709 45.0654 15.2461C44.7069 13.7645 44.311 12.2923 43.8782 10.8308C43.3186 8.93924 42.4163 6.78152 39.8778 6.35355Z" fill="url(#paint21_linear_445_30)"/>
<path d="M32.572 38.1046C33.6995 36.4549 36.2423 36.8836 36.7674 38.813L39.8782 50.2416C39.9472 50.4948 39.9514 50.7612 39.8904 51.0164C39.8293 51.2715 39.705 51.5072 39.5289 51.7017C39.3528 51.8962 39.1305 52.0431 38.8826 52.1291C38.6347 52.215 38.3692 52.2372 38.1105 52.1935L26.915 50.306C26.6565 50.2623 26.4132 50.1542 26.2075 49.9917C26.0018 49.8293 25.8402 49.6177 25.7377 49.3764C25.6352 49.1352 25.5951 48.872 25.6209 48.6112C25.6468 48.3503 25.7379 48.1002 25.8858 47.8838L32.572 38.1046Z" fill="url(#paint22_linear_445_30)"/>
<path d="M32.572 38.1046C33.6995 36.4549 36.2423 36.8836 36.7674 38.813L39.8782 50.2416C39.9472 50.4948 39.9514 50.7612 39.8904 51.0164C39.8293 51.2715 39.705 51.5072 39.5289 51.7017C39.3528 51.8962 39.1305 52.0431 38.8826 52.1291C38.6347 52.215 38.3692 52.2372 38.1105 52.1935L26.915 50.306C26.6565 50.2623 26.4132 50.1542 26.2075 49.9917C26.0018 49.8293 25.8402 49.6177 25.7377 49.3764C25.6352 49.1352 25.5951 48.872 25.6209 48.6112C25.6468 48.3503 25.7379 48.1002 25.8858 47.8838L32.572 38.1046Z" fill="url(#paint23_radial_445_30)"/>
<path d="M32.572 38.1046C33.6995 36.4549 36.2423 36.8836 36.7674 38.813L39.8782 50.2416C39.9472 50.4948 39.9514 50.7612 39.8904 51.0164C39.8293 51.2715 39.705 51.5072 39.5289 51.7017C39.3528 51.8962 39.1305 52.0431 38.8826 52.1291C38.6347 52.215 38.3692 52.2372 38.1105 52.1935L26.915 50.306C26.6565 50.2623 26.4132 50.1542 26.2075 49.9917C26.0018 49.8293 25.8402 49.6177 25.7377 49.3764C25.6352 49.1352 25.5951 48.872 25.6209 48.6112C25.6468 48.3503 25.7379 48.1002 25.8858 47.8838L32.572 38.1046Z" fill="url(#paint24_radial_445_30)"/>
<path d="M32.572 38.1046C33.6995 36.4549 36.2423 36.8836 36.7674 38.813L39.8782 50.2416C39.9472 50.4948 39.9514 50.7612 39.8904 51.0164C39.8293 51.2715 39.705 51.5072 39.5289 51.7017C39.3528 51.8962 39.1305 52.0431 38.8826 52.1291C38.6347 52.215 38.3692 52.2372 38.1105 52.1935L26.915 50.306C26.6565 50.2623 26.4132 50.1542 26.2075 49.9917C26.0018 49.8293 25.8402 49.6177 25.7377 49.3764C25.6352 49.1352 25.5951 48.872 25.6209 48.6112C25.6468 48.3503 25.7379 48.1002 25.8858 47.8838L32.572 38.1046Z" fill="url(#paint25_radial_445_30)"/>
<g filter="url(#filter3_f_445_30)">
<path d="M31.8264 48.8538L34.996 38.1479L36.2124 49.628L31.8264 48.8538Z" fill="url(#paint26_linear_445_30)"/>
</g>
</g>
<defs>
<filter id="filter0_i_445_30" x="24.37" y="12.9954" width="22.4402" height="38.125" filterUnits="userSpaceOnUse" color-interpolation-filters="sRGB">
<feFlood flood-opacity="0" result="BackgroundImageFix"/>
<feBlend mode="normal" in="SourceGraphic" in2="BackgroundImageFix" result="shape"/>
<feColorMatrix in="SourceAlpha" type="matrix" values="0 0 0 0 0 0 0 0 0 0 0 0 0 0 0 0 0 0 127 0" result="hardAlpha"/>
<feOffset dx="-0.125" dy="-0.25"/>
<feGaussianBlur stdDeviation="0.375"/>
<feComposite in2="hardAlpha" operator="arithmetic" k2="-1" k3="1"/>
<feColorMatrix type="matrix" values="0 0 0 0 0.745098 0 0 0 0 0.772549 0 0 0 0 0.952941 0 0 0 1 0"/>
<feBlend mode="normal" in2="shape" result="effect1_innerShadow_445_30"/>
</filter>
<filter id="filter1_dii_445_30" x="31.3743" y="18.5057" width="11.5" height="11.5" filterUnits="userSpaceOnUse" color-interpolation-filters="sRGB">
<feFlood flood-opacity="0" result="BackgroundImageFix"/>
<feColorMatrix in="SourceAlpha" type="matrix" values="0 0 0 0 0 0 0 0 0 0 0 0 0 0 0 0 0 0 127 0" result="hardAlpha"/>
<feOffset dy="0.125"/>
<feGaussianBlur stdDeviation="0.25"/>
<feComposite in2="hardAlpha" operator="out"/>
<feColorMatrix type="matrix" values="0 0 0 0 0.866667 0 0 0 0 0.764706 0 0 0 0 0.847059 0 0 0 1 0"/>
<feBlend mode="normal" in2="BackgroundImageFix" result="effect1_dropShadow_445_30"/>
<feBlend mode="normal" in="SourceGraphic" in2="effect1_dropShadow_445_30" result="shape"/>
<feColorMatrix in="SourceAlpha" type="matrix" values="0 0 0 0 0 0 0 0 0 0 0 0 0 0 0 0 0 0 127 0" result="hardAlpha"/>
<feOffset dx="-0.05" dy="0.05"/>
<feGaussianBlur stdDeviation="0.025"/>
<feComposite in2="hardAlpha" operator="arithmetic" k2="-1" k3="1"/>
<feColorMatrix type="matrix" values="0 0 0 0 0.721569 0 0 0 0 0.690196 0 0 0 0 0.701961 0 0 0 1 0"/>
<feBlend mode="normal" in2="shape" result="effect2_innerShadow_445_30"/>
<feColorMatrix in="SourceAlpha" type="matrix" values="0 0 0 0 0 0 0 0 0 0 0 0 0 0 0 0 0 0 127 0" result="hardAlpha"/>
<feOffset dx="0.05" dy="-0.05"/>
<feGaussianBlur stdDeviation="0.025"/>
<feComposite in2="hardAlpha" operator="arithmetic" k2="-1" k3="1"/>
<feColorMatrix type="matrix" values="0 0 0 0 0.615686 0 0 0 0 0.560784 0 0 0 0 0.65098 0 0 0 1 0"/>
<feBlend mode="normal" in2="effect2_innerShadow_445_30" result="effect3_innerShadow_445_30"/>
</filter>
<filter id="filter2_i_445_30" x="25.9529" y="51.1062" width="10.8708" height="13.4267" filterUnits="userSpaceOnUse" color-interpolation-filters="sRGB">
<feFlood flood-opacity="0" result="BackgroundImageFix"/>
<feBlend mode="normal" in="SourceGraphic" in2="BackgroundImageFix" result="shape"/>
<feColorMatrix in="SourceAlpha" type="matrix" values="0 0 0 0 0 0 0 0 0 0 0 0 0 0 0 0 0 0 127 0" result="hardAlpha"/>
<feOffset dy="-0.1"/>
<feGaussianBlur stdDeviation="0.1"/>
<feComposite in2="hardAlpha" operator="arithmetic" k2="-1" k3="1"/>
<feColorMatrix type="matrix" values="0 0 0 0 0.847059 0 0 0 0 0.505882 0 0 0 0 0.360784 0 0 0 1 0"/>
<feBlend mode="normal" in2="shape" result="effect1_innerShadow_445_30"/>
</filter>
<filter id="filter3_f_445_30" x="31.3264" y="37.6479" width="5.38599" height="12.4801" filterUnits="userSpaceOnUse" color-interpolation-filters="sRGB">
<feFlood flood-opacity="0" result="BackgroundImageFix"/>
<feBlend mode="normal" in="SourceGraphic" in2="BackgroundImageFix" result="shape"/>
<feGaussianBlur stdDeviation="0.25" result="effect1_foregroundBlur_445_30"/>
</filter>
<linearGradient id="paint0_linear_445_30" x1="26.141" y1="43.8115" x2="19.0289" y2="47.2914" gradientUnits="userSpaceOnUse">
<stop stop-color="#EE2452"/>
<stop offset="1" stop-color="#F63E7A"/>
</linearGradient>
<radialGradient id="paint1_radial_445_30" cx="0" cy="0" r="1" gradientUnits="userSpaceOnUse" gradientTransform="translate(18.6456 48.6744) rotate(-55.388) scale(12.5026 2.12571)">
<stop offset="0.164" stop-color="#FF8DB0"/>
<stop offset="1" stop-color="#FF8DB0" stop-opacity="0"/>
</radialGradient>
<linearGradient id="paint2_linear_445_30" x1="24.2559" y1="49.8029" x2="24.5734" y2="48.0525" gradientUnits="userSpaceOnUse">
<stop offset="0.491" stop-color="#DD467C"/>
<stop offset="1" stop-color="#DD467C" stop-opacity="0"/>
</linearGradient>
<linearGradient id="paint3_linear_445_30" x1="42.5467" y1="40.5078" x2="39.0496" y2="52.3518" gradientUnits="userSpaceOnUse">
<stop stop-color="#F83267"/>
<stop offset="1" stop-color="#FF3190"/>
</linearGradient>
<radialGradient id="paint4_radial_445_30" cx="0" cy="0" r="1" gradientUnits="userSpaceOnUse" gradientTransform="translate(38.81 44.1838) rotate(51.0516) scale(11.936 10.2907)">
<stop offset="0.757" stop-color="#E76CBE" stop-opacity="0"/>
<stop offset="0.951" stop-color="#E76CBE"/>
</radialGradient>
<radialGradient id="paint5_radial_445_30" cx="0" cy="0" r="1" gradientUnits="userSpaceOnUse" gradientTransform="translate(41.0287 50.3359) rotate(-92.7764) scale(8.23518 3.6173)">
<stop stop-color="#FF5898"/>
<stop offset="1" stop-color="#FF5898" stop-opacity="0"/>
</radialGradient>
<linearGradient id="paint6_linear_445_30" x1="25.1617" y1="27.9477" x2="44.4197" y2="31.265" gradientUnits="userSpaceOnUse">
<stop stop-color="#CCBBC0"/>
<stop offset="1" stop-color="#EAD2EC"/>
</linearGradient>
<radialGradient id="paint7_radial_445_30" cx="0" cy="0" r="1" gradientUnits="userSpaceOnUse" gradientTransform="translate(50.1988 34.8814) rotate(-177.877) scale(26.0577 48.9817)">
<stop offset="0.811" stop-color="#E7E5E5" stop-opacity="0"/>
<stop offset="1" stop-color="#E7E5E5"/>
</radialGradient>
<radialGradient id="paint8_radial_445_30" cx="0" cy="0" r="1" gradientUnits="userSpaceOnUse" gradientTransform="translate(31.1283 47.9373) rotate(-92.3594) scale(15.3184 7.19953)">
<stop offset="0.281" stop-color="#B5A3A5"/>
<stop offset="1" stop-color="#B5A3A5" stop-opacity="0"/>
</radialGradient>
<radialGradient id="paint9_radial_445_30" cx="0" cy="0" r="1" gradientUnits="userSpaceOnUse" gradientTransform="translate(26.4123 48.9545) rotate(-109.055) scale(13.58 2.30109)">
<stop offset="0.208" stop-color="#B28F96"/>
<stop offset="1" stop-color="#B28F96" stop-opacity="0"/>
</radialGradient>
<radialGradient id="paint10_radial_445_30" cx="0" cy="0" r="1" gradientUnits="userSpaceOnUse" gradientTransform="translate(41.0923 13.6184) rotate(101.854) scale(20.5859 6.3917)">
<stop stop-color="#FAECF1"/>
<stop offset="1" stop-color="#FAECF1" stop-opacity="0"/>
</radialGradient>
<linearGradient id="paint11_linear_445_30" x1="32.2775" y1="26.3731" x2="41.349" y2="21.014" gradientUnits="userSpaceOnUse">
<stop stop-color="#A796A0"/>
<stop offset="1" stop-color="#A5959F"/>
</linearGradient>
<radialGradient id="paint12_radial_445_30" cx="0" cy="0" r="1" gradientUnits="userSpaceOnUse" gradientTransform="translate(37.0738 24.0556) rotate(54.5696) scale(5.24903)">
<stop offset="0.587" stop-color="#93859B"/>
<stop offset="1" stop-color="#93859B" stop-opacity="0"/>
</radialGradient>
<radialGradient id="paint13_radial_445_30" cx="0" cy="0" r="1" gradientUnits="userSpaceOnUse" gradientTransform="translate(39.178 27.0187) rotate(-125.43) scale(7.57123 6.9629)">
<stop stop-color="#72CDFF"/>
<stop offset="0.738" stop-color="#66ACFF"/>
<stop offset="1" stop-color="#3B57F4"/>
</radialGradient>
<radialGradient id="paint14_radial_445_30" cx="0" cy="0" r="1" gradientUnits="userSpaceOnUse" gradientTransform="translate(32.5282 52.5734) rotate(99.5696) scale(9.07258 7.13126)">
<stop stop-color="#D46213"/>
<stop offset="1" stop-color="#FF9542"/>
</radialGradient>
<radialGradient id="paint15_radial_445_30" cx="0" cy="0" r="1" gradientUnits="userSpaceOnUse" gradientTransform="translate(36.9502 58.4842) rotate(-166.616) scale(11.2102 11.8137)">
<stop offset="0.871" stop-color="#FFC484" stop-opacity="0"/>
<stop offset="1" stop-color="#FFC484"/>
</radialGradient>
<linearGradient id="paint16_linear_445_30" x1="27.4036" y1="51.8204" x2="39.3028" y2="53.7212" gradientUnits="userSpaceOnUse">
<stop stop-color="#452860"/>
<stop offset="1" stop-color="#51509F"/>
</linearGradient>
<radialGradient id="paint17_radial_445_30" cx="0" cy="0" r="1" gradientUnits="userSpaceOnUse" gradientTransform="translate(28.2646 50.249) rotate(42.3982) scale(2.5475 2.25078)">
<stop stop-color="#8E839A"/>
<stop offset="1" stop-color="#8E839A" stop-opacity="0"/>
</radialGradient>
<radialGradient id="paint18_radial_445_30" cx="0" cy="0" r="1" gradientUnits="userSpaceOnUse" gradientTransform="translate(29.6187 51.1361) rotate(12.5053) scale(9.70672 5.08807)">
<stop offset="0.86" stop-color="#6175B9" stop-opacity="0"/>
<stop offset="1" stop-color="#6175B9"/>
</radialGradient>
<linearGradient id="paint19_linear_445_30" x1="39.8887" y1="6.35539" x2="38.5383" y2="14.3652" gradientUnits="userSpaceOnUse">
<stop stop-color="#FF3745"/>
<stop offset="1" stop-color="#ED224B"/>
</linearGradient>
<radialGradient id="paint20_radial_445_30" cx="0" cy="0" r="1" gradientUnits="userSpaceOnUse" gradientTransform="translate(40.6643 8.62615) rotate(99.5696) scale(12.8856 3.09328)">
<stop offset="0.189" stop-color="#FF5971"/>
<stop offset="1" stop-color="#FF5971" stop-opacity="0"/>
</radialGradient>
<linearGradient id="paint21_linear_445_30" x1="39.1689" y1="14.3864" x2="39.2892" y2="13.5664" gradientUnits="userSpaceOnUse">
<stop stop-color="#D2575E"/>
<stop offset="1" stop-color="#F93251" stop-opacity="0"/>
</linearGradient>
<linearGradient id="paint22_linear_445_30" x1="34.8954" y1="37.117" x2="32.5127" y2="51.2497" gradientUnits="userSpaceOnUse">
<stop stop-color="#FF2644"/>
<stop offset="1" stop-color="#FF2982"/>
</linearGradient>
<radialGradient id="paint23_radial_445_30" cx="0" cy="0" r="1" gradientUnits="userSpaceOnUse" gradientTransform="translate(25.6687 48.2012) rotate(-56.2954) scale(11.6528 3.05062)">
<stop stop-color="#FF95AF"/>
<stop offset="1" stop-color="#FF95AF" stop-opacity="0"/>
</radialGradient>
<radialGradient id="paint24_radial_445_30" cx="0" cy="0" r="1" gradientUnits="userSpaceOnUse" gradientTransform="translate(25.4043 50.0883) rotate(9.27399) scale(7.20346 2.12783)">
<stop offset="0.382" stop-color="#E14678"/>
<stop offset="1" stop-color="#E14678" stop-opacity="0"/>
</radialGradient>
<radialGradient id="paint25_radial_445_30" cx="0" cy="0" r="1" gradientUnits="userSpaceOnUse" gradientTransform="translate(32.217 43.0016) rotate(49.2439) scale(11.5734 12.3331)">
<stop offset="0.832" stop-color="#E67BC7" stop-opacity="0"/>
<stop offset="1" stop-color="#E67BC7"/>
</radialGradient>
<linearGradient id="paint26_linear_445_30" x1="34.3463" y1="39.5095" x2="33.0013" y2="48.7371" gradientUnits="userSpaceOnUse">
<stop stop-color="#FF5970"/>
<stop offset="1" stop-color="#FF5794"/>
</linearGradient>
</defs>
</svg>
