<svg width="20" height="20" viewBox="0 0 20 20" fill="none" xmlns="http://www.w3.org/2000/svg">
<path d="M2.01134 0.360379C1.78655 0.285193 1.54502 0.27547 1.31492 0.332345C1.08482 0.38922 0.875635 0.510349 0.711764 0.681602C0.547893 0.852854 0.436092 1.06717 0.389404 1.29955C0.342716 1.53193 0.363064 1.7728 0.448075 1.99406L6.71828 18.3285C7.13351 19.4102 8.66718 19.3945 9.06077 18.3062L11.3485 11.9749C11.44 11.7221 11.5848 11.4919 11.7731 11.2999C11.9614 11.108 12.1888 10.9588 12.4398 10.8625L18.9652 8.35761C20.0597 7.93745 20.0254 6.37613 18.9136 6.00496L2.01134 0.360379Z" fill="#212529"/>
</svg>
