<svg width="25" height="25" viewBox="0 0 25 25" fill="none" xmlns="http://www.w3.org/2000/svg">
<path d="M12.5 13.1579C12.1272 13.1579 11.8149 13.0316 11.5632 12.7789C11.3114 12.5263 11.1851 12.214 11.1842 11.8421V1.31579C11.1842 0.942987 11.3105 0.630706 11.5632 0.378952C11.8158 0.127198 12.1281 0.00088173 12.5 4.5372e-06C12.8719 -0.000872656 13.1846 0.125443 13.4382 0.378952C13.6917 0.632461 13.8175 0.944741 13.8158 1.31579V11.8421C13.8158 12.2149 13.6895 12.5276 13.4368 12.7803C13.1842 13.0329 12.8719 13.1588 12.5 13.1579ZM12.5 25C10.8553 25 9.31491 24.6877 7.87895 24.0632C6.44298 23.4386 5.19298 22.5943 4.12895 21.5303C3.06491 20.4662 2.22062 19.2162 1.59606 17.7803C0.971494 16.3443 0.658775 14.8035 0.657898 13.1579C0.657898 11.8202 0.877196 10.5206 1.31579 9.25921C1.75439 7.99781 2.39035 6.84123 3.22369 5.78948C3.46491 5.48246 3.77193 5.33465 4.14474 5.34606C4.51755 5.35746 4.84649 5.50527 5.13158 5.78948C5.37281 6.0307 5.48246 6.32676 5.46053 6.67763C5.4386 7.02851 5.31798 7.35746 5.09869 7.66448C4.50658 8.45395 4.05702 9.32018 3.75 10.2632C3.44298 11.2061 3.28948 12.1711 3.28948 13.1579C3.28948 15.7237 4.18334 17.9004 5.97105 19.6882C7.75877 21.4759 9.93509 22.3693 12.5 22.3684C15.0649 22.3675 17.2417 21.4741 19.0303 19.6882C20.8189 17.9022 21.7123 15.7254 21.7105 13.1579C21.7105 12.1491 21.5627 11.1675 21.2671 10.2132C20.9715 9.25877 20.5053 8.38728 19.8684 7.59869C19.6491 7.3136 19.5285 7.00132 19.5066 6.66184C19.4846 6.32237 19.5943 6.03158 19.8355 5.78948C20.0987 5.52632 20.4167 5.38948 20.7895 5.37895C21.1623 5.36842 21.4693 5.50527 21.7105 5.78948C22.5658 6.84211 23.2184 7.99342 23.6684 9.24342C24.1184 10.4934 24.343 11.7982 24.3421 13.1579C24.3421 14.8026 24.0298 16.3434 23.4053 17.7803C22.7807 19.2171 21.9364 20.4671 20.8724 21.5303C19.8083 22.5934 18.5583 23.4377 17.1224 24.0632C15.6864 24.6886 14.1456 25.0009 12.5 25Z" fill="#343A40"/>
</svg>
