<svg width="72" height="72" viewBox="0 0 72 72" fill="none" xmlns="http://www.w3.org/2000/svg">
<mask id="mask0_445_30" style="mask-type:luminance" maskUnits="userSpaceOnUse" x="0" y="0" width="72" height="72">
<path d="M37.965 71.3007L0.699307 37.9649L34.035 0.699276L71.3007 34.035L37.965 71.3007Z" fill="white"/>
</mask>
<g mask="url(#mask0_445_30)">
<path d="M39.9325 44.3015C38.0746 43.5661 37.9313 40.9914 39.6971 40.0532L50.1557 34.4948C50.3873 34.3716 50.6463 34.3087 50.9086 34.3119C51.171 34.3151 51.4283 34.3843 51.6568 34.5131C51.8854 34.642 52.0778 34.8263 52.2164 35.0491C52.3549 35.2719 52.4352 35.526 52.4497 35.7879L53.0807 47.1239C53.095 47.3856 53.0434 47.6468 52.9303 47.8833C52.8173 48.1198 52.6466 48.3241 52.434 48.4773C52.2213 48.6306 51.9735 48.7278 51.7134 48.7602C51.4532 48.7925 51.1892 48.7589 50.9454 48.6625L39.9325 44.3015Z" fill="url(#paint0_linear_445_30)"/>
<path d="M39.9325 44.3015C38.0746 43.5661 37.9313 40.9914 39.6971 40.0532L50.1557 34.4948C50.3873 34.3716 50.6463 34.3087 50.9086 34.3119C51.171 34.3151 51.4283 34.3843 51.6568 34.5131C51.8854 34.642 52.0778 34.8263 52.2164 35.0491C52.3549 35.2719 52.4352 35.526 52.4497 35.7879L53.0807 47.1239C53.095 47.3856 53.0434 47.6468 52.9303 47.8833C52.8173 48.1198 52.6466 48.3241 52.434 48.4773C52.2213 48.6306 51.9735 48.7278 51.7134 48.7602C51.4532 48.7925 51.1892 48.7589 50.9454 48.6625L39.9325 44.3015Z" fill="url(#paint1_radial_445_30)"/>
<path d="M39.9325 44.3015C38.0746 43.5661 37.9313 40.9914 39.6971 40.0532L50.1557 34.4948C50.3873 34.3716 50.6463 34.3087 50.9086 34.3119C51.171 34.3151 51.4283 34.3843 51.6568 34.5131C51.8854 34.642 52.0778 34.8263 52.2164 35.0491C52.3549 35.2719 52.4352 35.526 52.4497 35.7879L53.0807 47.1239C53.095 47.3856 53.0434 47.6468 52.9303 47.8833C52.8173 48.1198 52.6466 48.3241 52.434 48.4773C52.2213 48.6306 51.9735 48.7278 51.7134 48.7602C51.4532 48.7925 51.1892 48.7589 50.9454 48.6625L39.9325 44.3015Z" fill="url(#paint2_linear_445_30)"/>
<path d="M39.1956 31.0637C37.3377 30.3284 37.1944 27.7536 38.9603 26.8155L49.4212 21.2592C49.6527 21.1362 49.9114 21.0735 50.1735 21.0768C50.4356 21.0801 50.6927 21.1492 50.9211 21.2779C51.1494 21.4066 51.3417 21.5907 51.4803 21.8132C51.6189 22.0357 51.6992 22.2895 51.714 22.5512L52.345 33.8872C52.3594 34.1489 52.3077 34.4101 52.1947 34.6466C52.0816 34.8831 51.9109 35.0874 51.6983 35.2406C51.4856 35.3939 51.2378 35.4911 50.9777 35.5235C50.7176 35.5558 50.4535 35.5222 50.2097 35.4258L39.1956 31.0637Z" fill="url(#paint3_linear_445_30)"/>
<path d="M39.1956 31.0637C37.3377 30.3284 37.1944 27.7536 38.9603 26.8155L49.4212 21.2592C49.6527 21.1362 49.9114 21.0735 50.1735 21.0768C50.4356 21.0801 50.6927 21.1492 50.9211 21.2779C51.1494 21.4066 51.3417 21.5907 51.4803 21.8132C51.6189 22.0357 51.6992 22.2895 51.714 22.5512L52.345 33.8872C52.3594 34.1489 52.3077 34.4101 52.1947 34.6466C52.0816 34.8831 51.9109 35.0874 51.6983 35.2406C51.4856 35.3939 51.2378 35.4911 50.9777 35.5235C50.7176 35.5558 50.4535 35.5222 50.2097 35.4258L39.1956 31.0637Z" fill="url(#paint4_radial_445_30)"/>
<path d="M39.1956 31.0637C37.3377 30.3284 37.1944 27.7536 38.9603 26.8155L49.4212 21.2592C49.6527 21.1362 49.9114 21.0735 50.1735 21.0768C50.4356 21.0801 50.6927 21.1492 50.9211 21.2779C51.1494 21.4066 51.3417 21.5907 51.4803 21.8132C51.6189 22.0357 51.6992 22.2895 51.714 22.5512L52.345 33.8872C52.3594 34.1489 52.3077 34.4101 52.1947 34.6466C52.0816 34.8831 51.9109 35.0874 51.6983 35.2406C51.4856 35.3939 51.2378 35.4911 50.9777 35.5235C50.7176 35.5558 50.4535 35.5222 50.2097 35.4258L39.1956 31.0637Z" fill="url(#paint5_radial_445_30)"/>
<g filter="url(#filter0_i_445_30)">
<path d="M15.5773 43.8314C15.5342 43.8155 15.4966 43.7873 15.4694 43.7503C15.4421 43.7132 15.4264 43.669 15.4241 43.623L14.7482 30.5866C14.7457 30.5407 14.7567 30.4951 14.7799 30.4555C14.8031 30.4158 14.8374 30.3839 14.8786 30.3635C20.125 27.8031 26.2213 25.5416 31.9609 25.221C37.5517 24.9098 44.7921 26.8604 50.9532 29.0427L51.6265 41.1586C45.7456 44.0111 38.7675 46.7521 33.1768 47.0633C27.4183 47.3839 21.0882 45.803 15.5795 43.8313" fill="url(#paint6_linear_445_30)"/>
<path d="M15.5773 43.8314C15.5342 43.8155 15.4966 43.7873 15.4694 43.7503C15.4421 43.7132 15.4264 43.669 15.4241 43.623L14.7482 30.5866C14.7457 30.5407 14.7567 30.4951 14.7799 30.4555C14.8031 30.4158 14.8374 30.3839 14.8786 30.3635C20.125 27.8031 26.2213 25.5416 31.9609 25.221C37.5517 24.9098 44.7921 26.8604 50.9532 29.0427L51.6265 41.1586C45.7456 44.0111 38.7675 46.7521 33.1768 47.0633C27.4183 47.3839 21.0882 45.803 15.5795 43.8313" fill="url(#paint7_radial_445_30)"/>
<path d="M15.5773 43.8314C15.5342 43.8155 15.4966 43.7873 15.4694 43.7503C15.4421 43.7132 15.4264 43.669 15.4241 43.623L14.7482 30.5866C14.7457 30.5407 14.7567 30.4951 14.7799 30.4555C14.8031 30.4158 14.8374 30.3839 14.8786 30.3635C20.125 27.8031 26.2213 25.5416 31.9609 25.221C37.5517 24.9098 44.7921 26.8604 50.9532 29.0427L51.6265 41.1586C45.7456 44.0111 38.7675 46.7521 33.1768 47.0633C27.4183 47.3839 21.0882 45.803 15.5795 43.8313" fill="url(#paint8_radial_445_30)"/>
<path d="M15.5773 43.8314C15.5342 43.8155 15.4966 43.7873 15.4694 43.7503C15.4421 43.7132 15.4264 43.669 15.4241 43.623L14.7482 30.5866C14.7457 30.5407 14.7567 30.4951 14.7799 30.4555C14.8031 30.4158 14.8374 30.3839 14.8786 30.3635C20.125 27.8031 26.2213 25.5416 31.9609 25.221C37.5517 24.9098 44.7921 26.8604 50.9532 29.0427L51.6265 41.1586C45.7456 44.0111 38.7675 46.7521 33.1768 47.0633C27.4183 47.3839 21.0882 45.803 15.5795 43.8313" fill="url(#paint9_radial_445_30)"/>
<path d="M15.5773 43.8314C15.5342 43.8155 15.4966 43.7873 15.4694 43.7503C15.4421 43.7132 15.4264 43.669 15.4241 43.623L14.7482 30.5866C14.7457 30.5407 14.7567 30.4951 14.7799 30.4555C14.8031 30.4158 14.8374 30.3839 14.8786 30.3635C20.125 27.8031 26.2213 25.5416 31.9609 25.221C37.5517 24.9098 44.7921 26.8604 50.9532 29.0427L51.6265 41.1586C45.7456 44.0111 38.7675 46.7521 33.1768 47.0633C27.4183 47.3839 21.0882 45.803 15.5795 43.8313" fill="url(#paint10_radial_445_30)"/>
</g>
<g filter="url(#filter1_dii_445_30)">
<path d="M20.9572 32.8957C21.413 32.3682 21.9691 31.9368 22.5934 31.6266C23.2176 31.3163 23.8973 31.1335 24.593 31.0888C25.2886 31.044 25.9861 31.1383 26.645 31.366C27.3038 31.5937 27.9107 31.9503 28.4302 32.4151C28.9497 32.8798 29.3715 33.4433 29.6709 34.0728C29.9703 34.7023 30.1414 35.3851 30.1741 36.0814C30.2069 36.7777 30.1006 37.4735 29.8616 38.1283C29.6225 38.7831 29.2555 39.3837 28.7819 39.8952C27.8464 40.9053 26.5517 41.5075 25.1765 41.5722C23.8013 41.6368 22.4558 41.1587 21.4297 40.2408C20.4036 39.323 19.7791 38.0388 19.6908 36.6649C19.6024 35.2911 20.0572 33.9375 20.9572 32.8957Z" fill="url(#paint11_linear_445_30)"/>
<path d="M20.9572 32.8957C21.413 32.3682 21.9691 31.9368 22.5934 31.6266C23.2176 31.3163 23.8973 31.1335 24.593 31.0888C25.2886 31.044 25.9861 31.1383 26.645 31.366C27.3038 31.5937 27.9107 31.9503 28.4302 32.4151C28.9497 32.8798 29.3715 33.4433 29.6709 34.0728C29.9703 34.7023 30.1414 35.3851 30.1741 36.0814C30.2069 36.7777 30.1006 37.4735 29.8616 38.1283C29.6225 38.7831 29.2555 39.3837 28.7819 39.8952C27.8464 40.9053 26.5517 41.5075 25.1765 41.5722C23.8013 41.6368 22.4558 41.1587 21.4297 40.2408C20.4036 39.323 19.7791 38.0388 19.6908 36.6649C19.6024 35.2911 20.0572 33.9375 20.9572 32.8957Z" fill="url(#paint12_radial_445_30)"/>
</g>
<path d="M22.1613 33.9729C22.4762 33.6059 22.8612 33.3054 23.2937 33.089C23.7262 32.8726 24.1975 32.7448 24.6801 32.7129C25.1627 32.681 25.6467 32.7458 26.104 32.9033C26.5612 33.0609 26.9824 33.3082 27.3428 33.6306C27.7032 33.953 27.9957 34.3442 28.2031 34.7811C28.4104 35.218 28.5285 35.6919 28.5504 36.175C28.5722 36.6581 28.4975 37.1407 28.3304 37.5946C28.1634 38.0485 27.9075 38.4644 27.5776 38.8181C26.9291 39.5135 26.0339 39.927 25.0841 39.97C24.1342 40.013 23.2053 39.682 22.4966 39.0481C21.7879 38.4142 21.3559 37.5277 21.2932 36.579C21.2305 35.6302 21.5422 34.6946 22.1613 33.9729Z" fill="url(#paint13_radial_445_30)"/>
<g filter="url(#filter2_i_445_30)">
<path d="M65.9092 34.3837C65.996 35.9435 60.5566 41.3586 56.6035 39.9188C56.6035 39.9188 52.6504 38.479 52.441 34.9375C52.2317 31.396 54.9477 30.0519 54.9477 30.0519C57.9806 28.3184 62.364 30.4723 62.4075 31.2534C62.4315 31.6836 61.6529 31.7314 61.672 32.0755C61.6902 32.4209 62.1585 32.4645 63.2742 32.7687C64.0697 32.9856 65.8744 33.7593 65.9092 34.3837Z" fill="url(#paint14_radial_445_30)"/>
<path d="M65.9092 34.3837C65.996 35.9435 60.5566 41.3586 56.6035 39.9188C56.6035 39.9188 52.6504 38.479 52.441 34.9375C52.2317 31.396 54.9477 30.0519 54.9477 30.0519C57.9806 28.3184 62.364 30.4723 62.4075 31.2534C62.4315 31.6836 61.6529 31.7314 61.672 32.0755C61.6902 32.4209 62.1585 32.4645 63.2742 32.7687C64.0697 32.9856 65.8744 33.7593 65.9092 34.3837Z" fill="url(#paint15_radial_445_30)"/>
</g>
<path d="M52.7658 40.5529C52.4584 40.5701 52.1505 40.5266 51.8599 40.4248C51.5693 40.323 51.3017 40.1649 51.0722 39.9596C50.8427 39.7543 50.6559 39.5058 50.5225 39.2283C50.389 38.9508 50.3116 38.6498 50.2946 38.3423L49.8615 30.5419C49.8444 29.9318 50.0659 29.3391 50.479 28.8899C50.8921 28.4406 51.4642 28.1702 52.0735 28.1361C52.6829 28.1021 53.2815 28.307 53.7421 28.7075C54.2027 29.1079 54.4889 29.6722 54.5399 30.2804L54.9764 38.0817C54.9936 38.3891 54.95 38.6969 54.8482 38.9875C54.7464 39.2781 54.5884 39.5458 54.3831 39.7753C54.1778 40.0048 53.9293 40.1916 53.6518 40.325C53.3743 40.4584 53.0732 40.5359 52.7658 40.5529Z" fill="url(#paint16_linear_445_30)"/>
<path d="M52.7658 40.5529C52.4584 40.5701 52.1505 40.5266 51.8599 40.4248C51.5693 40.323 51.3017 40.1649 51.0722 39.9596C50.8427 39.7543 50.6559 39.5058 50.5225 39.2283C50.389 38.9508 50.3116 38.6498 50.2946 38.3423L49.8615 30.5419C49.8444 29.9318 50.0659 29.3391 50.479 28.8899C50.8921 28.4406 51.4642 28.1702 52.0735 28.1361C52.6829 28.1021 53.2815 28.307 53.7421 28.7075C54.2027 29.1079 54.4889 29.6722 54.5399 30.2804L54.9764 38.0817C54.9936 38.3891 54.95 38.6969 54.8482 38.9875C54.7464 39.2781 54.5884 39.5458 54.3831 39.7753C54.1778 40.0048 53.9293 40.1916 53.6518 40.325C53.3743 40.4584 53.0732 40.5359 52.7658 40.5529Z" fill="url(#paint17_radial_445_30)"/>
<path d="M52.7658 40.5529C52.4584 40.5701 52.1505 40.5266 51.8599 40.4248C51.5693 40.323 51.3017 40.1649 51.0722 39.9596C50.8427 39.7543 50.6559 39.5058 50.5225 39.2283C50.389 38.9508 50.3116 38.6498 50.2946 38.3423L49.8615 30.5419C49.8444 29.9318 50.0659 29.3391 50.479 28.8899C50.8921 28.4406 51.4642 28.1702 52.0735 28.1361C52.6829 28.1021 53.2815 28.307 53.7421 28.7075C54.2027 29.1079 54.4889 29.6722 54.5399 30.2804L54.9764 38.0817C54.9936 38.3891 54.95 38.6969 54.8482 38.9875C54.7464 39.2781 54.5884 39.5458 54.3831 39.7753C54.1778 40.0048 53.9293 40.1916 53.6518 40.325C53.3743 40.4584 53.0732 40.5359 52.7658 40.5529Z" fill="url(#paint18_radial_445_30)"/>
<path d="M6.98358 37.5675C7.09988 39.6568 9.14567 41.2625 10.9881 42.0386C12.3774 42.6251 13.781 43.1768 15.1978 43.6932C15.222 43.702 15.248 43.7046 15.2734 43.7009C15.2989 43.6973 15.3231 43.6873 15.3438 43.6721C15.3646 43.6568 15.3812 43.6366 15.3922 43.6134C15.4033 43.5901 15.4084 43.5645 15.4072 43.5388L14.7343 30.6748C14.7325 30.6494 14.7246 30.6248 14.7111 30.6032C14.6977 30.5815 14.6792 30.5635 14.6572 30.5506C14.6352 30.5378 14.6104 30.5305 14.585 30.5294C14.5595 30.5284 14.5342 30.5335 14.5112 30.5445C13.1455 31.2213 11.797 31.9324 10.4671 32.6773C8.74575 33.6406 6.8405 34.9971 6.98358 37.5675Z" fill="url(#paint19_linear_445_30)"/>
<path d="M6.98358 37.5675C7.09988 39.6568 9.14567 41.2625 10.9881 42.0386C12.3774 42.6251 13.781 43.1768 15.1978 43.6932C15.222 43.702 15.248 43.7046 15.2734 43.7009C15.2989 43.6973 15.3231 43.6873 15.3438 43.6721C15.3646 43.6568 15.3812 43.6366 15.3922 43.6134C15.4033 43.5901 15.4084 43.5645 15.4072 43.5388L14.7343 30.6748C14.7325 30.6494 14.7246 30.6248 14.7111 30.6032C14.6977 30.5815 14.6792 30.5635 14.6572 30.5506C14.6352 30.5378 14.6104 30.5305 14.585 30.5294C14.5595 30.5284 14.5342 30.5335 14.5112 30.5445C13.1455 31.2213 11.797 31.9324 10.4671 32.6773C8.74575 33.6406 6.8405 34.9971 6.98358 37.5675Z" fill="url(#paint20_radial_445_30)"/>
<path d="M6.98358 37.5675C7.09988 39.6568 9.14567 41.2625 10.9881 42.0386C12.3774 42.6251 13.781 43.1768 15.1978 43.6932C15.222 43.702 15.248 43.7046 15.2734 43.7009C15.2989 43.6973 15.3231 43.6873 15.3438 43.6721C15.3646 43.6568 15.3812 43.6366 15.3922 43.6134C15.4033 43.5901 15.4084 43.5645 15.4072 43.5388L14.7343 30.6748C14.7325 30.6494 14.7246 30.6248 14.7111 30.6032C14.6977 30.5815 14.6792 30.5635 14.6572 30.5506C14.6352 30.5378 14.6104 30.5305 14.585 30.5294C14.5595 30.5284 14.5342 30.5335 14.5112 30.5445C13.1455 31.2213 11.797 31.9324 10.4671 32.6773C8.74575 33.6406 6.8405 34.9971 6.98358 37.5675Z" fill="url(#paint21_linear_445_30)"/>
<path d="M39.5641 37.6825C37.7062 36.9471 37.5628 34.3724 39.3287 33.4342L49.7884 27.8769C50.0201 27.7537 50.279 27.6907 50.5414 27.6939C50.8037 27.6971 51.061 27.7664 51.2896 27.8952C51.5181 28.024 51.7106 28.2084 51.8491 28.4312C51.9877 28.654 52.0679 28.9081 52.0824 29.17L52.7134 40.506C52.7278 40.7677 52.6761 41.0288 52.5631 41.2654C52.4501 41.5019 52.2794 41.7062 52.0667 41.8594C51.854 42.0126 51.6062 42.1099 51.3461 42.1423C51.086 42.1746 50.8219 42.141 50.5782 42.0445L39.5641 37.6825Z" fill="url(#paint22_linear_445_30)"/>
<path d="M39.5641 37.6825C37.7062 36.9471 37.5628 34.3724 39.3287 33.4342L49.7884 27.8769C50.0201 27.7537 50.279 27.6907 50.5414 27.6939C50.8037 27.6971 51.061 27.7664 51.2896 27.8952C51.5181 28.024 51.7106 28.2084 51.8491 28.4312C51.9877 28.654 52.0679 28.9081 52.0824 29.17L52.7134 40.506C52.7278 40.7677 52.6761 41.0288 52.5631 41.2654C52.4501 41.5019 52.2794 41.7062 52.0667 41.8594C51.854 42.0126 51.6062 42.1099 51.3461 42.1423C51.086 42.1746 50.8219 42.141 50.5782 42.0445L39.5641 37.6825Z" fill="url(#paint23_radial_445_30)"/>
<path d="M39.5641 37.6825C37.7062 36.9471 37.5628 34.3724 39.3287 33.4342L49.7884 27.8769C50.0201 27.7537 50.279 27.6907 50.5414 27.6939C50.8037 27.6971 51.061 27.7664 51.2896 27.8952C51.5181 28.024 51.7106 28.2084 51.8491 28.4312C51.9877 28.654 52.0679 28.9081 52.0824 29.17L52.7134 40.506C52.7278 40.7677 52.6761 41.0288 52.5631 41.2654C52.4501 41.5019 52.2794 41.7062 52.0667 41.8594C51.854 42.0126 51.6062 42.1099 51.3461 42.1423C51.086 42.1746 50.8219 42.141 50.5782 42.0445L39.5641 37.6825Z" fill="url(#paint24_radial_445_30)"/>
<path d="M39.5641 37.6825C37.7062 36.9471 37.5628 34.3724 39.3287 33.4342L49.7884 27.8769C50.0201 27.7537 50.279 27.6907 50.5414 27.6939C50.8037 27.6971 51.061 27.7664 51.2896 27.8952C51.5181 28.024 51.7106 28.2084 51.8491 28.4312C51.9877 28.654 52.0679 28.9081 52.0824 29.17L52.7134 40.506C52.7278 40.7677 52.6761 41.0288 52.5631 41.2654C52.4501 41.5019 52.2794 41.7062 52.0667 41.8594C51.854 42.0126 51.6062 42.1099 51.3461 42.1423C51.086 42.1746 50.8219 42.141 50.5782 42.0445L39.5641 37.6825Z" fill="url(#paint25_radial_445_30)"/>
<g filter="url(#filter3_f_445_30)">
<path d="M50.2127 36.0364L39.0711 35.3088L49.9994 31.5877L50.2127 36.0364Z" fill="url(#paint26_linear_445_30)"/>
</g>
</g>
<defs>
<filter id="filter0_i_445_30" x="14.6229" y="24.9382" width="37.0036" height="22.1666" filterUnits="userSpaceOnUse" color-interpolation-filters="sRGB">
<feFlood flood-opacity="0" result="BackgroundImageFix"/>
<feBlend mode="normal" in="SourceGraphic" in2="BackgroundImageFix" result="shape"/>
<feColorMatrix in="SourceAlpha" type="matrix" values="0 0 0 0 0 0 0 0 0 0 0 0 0 0 0 0 0 0 127 0" result="hardAlpha"/>
<feOffset dx="-0.125" dy="-0.25"/>
<feGaussianBlur stdDeviation="0.375"/>
<feComposite in2="hardAlpha" operator="arithmetic" k2="-1" k3="1"/>
<feColorMatrix type="matrix" values="0 0 0 0 0.745098 0 0 0 0 0.772549 0 0 0 0 0.952941 0 0 0 1 0"/>
<feBlend mode="normal" in2="shape" result="effect1_innerShadow_445_30"/>
</filter>
<filter id="filter1_dii_445_30" x="19.1799" y="30.703" width="11.5" height="11.5" filterUnits="userSpaceOnUse" color-interpolation-filters="sRGB">
<feFlood flood-opacity="0" result="BackgroundImageFix"/>
<feColorMatrix in="SourceAlpha" type="matrix" values="0 0 0 0 0 0 0 0 0 0 0 0 0 0 0 0 0 0 127 0" result="hardAlpha"/>
<feOffset dy="0.125"/>
<feGaussianBlur stdDeviation="0.25"/>
<feComposite in2="hardAlpha" operator="out"/>
<feColorMatrix type="matrix" values="0 0 0 0 0.866667 0 0 0 0 0.764706 0 0 0 0 0.847059 0 0 0 1 0"/>
<feBlend mode="normal" in2="BackgroundImageFix" result="effect1_dropShadow_445_30"/>
<feBlend mode="normal" in="SourceGraphic" in2="effect1_dropShadow_445_30" result="shape"/>
<feColorMatrix in="SourceAlpha" type="matrix" values="0 0 0 0 0 0 0 0 0 0 0 0 0 0 0 0 0 0 127 0" result="hardAlpha"/>
<feOffset dx="-0.05" dy="0.05"/>
<feGaussianBlur stdDeviation="0.025"/>
<feComposite in2="hardAlpha" operator="arithmetic" k2="-1" k3="1"/>
<feColorMatrix type="matrix" values="0 0 0 0 0.721569 0 0 0 0 0.690196 0 0 0 0 0.701961 0 0 0 1 0"/>
<feBlend mode="normal" in2="shape" result="effect2_innerShadow_445_30"/>
<feColorMatrix in="SourceAlpha" type="matrix" values="0 0 0 0 0 0 0 0 0 0 0 0 0 0 0 0 0 0 127 0" result="hardAlpha"/>
<feOffset dx="0.05" dy="-0.05"/>
<feGaussianBlur stdDeviation="0.025"/>
<feComposite in2="hardAlpha" operator="arithmetic" k2="-1" k3="1"/>
<feColorMatrix type="matrix" values="0 0 0 0 0.615686 0 0 0 0 0.560784 0 0 0 0 0.65098 0 0 0 1 0"/>
<feBlend mode="normal" in2="effect2_innerShadow_445_30" result="effect3_innerShadow_445_30"/>
</filter>
<filter id="filter2_i_445_30" x="52.4295" y="29.2943" width="13.4807" height="10.8656" filterUnits="userSpaceOnUse" color-interpolation-filters="sRGB">
<feFlood flood-opacity="0" result="BackgroundImageFix"/>
<feBlend mode="normal" in="SourceGraphic" in2="BackgroundImageFix" result="shape"/>
<feColorMatrix in="SourceAlpha" type="matrix" values="0 0 0 0 0 0 0 0 0 0 0 0 0 0 0 0 0 0 127 0" result="hardAlpha"/>
<feOffset dy="-0.1"/>
<feGaussianBlur stdDeviation="0.1"/>
<feComposite in2="hardAlpha" operator="arithmetic" k2="-1" k3="1"/>
<feColorMatrix type="matrix" values="0 0 0 0 0.847059 0 0 0 0 0.505882 0 0 0 0 0.360784 0 0 0 1 0"/>
<feBlend mode="normal" in2="shape" result="effect1_innerShadow_445_30"/>
</filter>
<filter id="filter3_f_445_30" x="38.5711" y="31.0878" width="12.1416" height="5.44861" filterUnits="userSpaceOnUse" color-interpolation-filters="sRGB">
<feFlood flood-opacity="0" result="BackgroundImageFix"/>
<feBlend mode="normal" in="SourceGraphic" in2="BackgroundImageFix" result="shape"/>
<feGaussianBlur stdDeviation="0.25" result="effect1_foregroundBlur_445_30"/>
</filter>
<linearGradient id="paint0_linear_445_30" x1="46.5499" y1="42.6949" x2="51.5143" y2="48.8632" gradientUnits="userSpaceOnUse">
<stop stop-color="#EE2452"/>
<stop offset="1" stop-color="#F63E7A"/>
</linearGradient>
<radialGradient id="paint1_radial_445_30" cx="0" cy="0" r="1" gradientUnits="userSpaceOnUse" gradientTransform="translate(52.9478 48.9317) rotate(-158.144) scale(12.5026 2.12571)">
<stop offset="0.164" stop-color="#FF8DB0"/>
<stop offset="1" stop-color="#FF8DB0" stop-opacity="0"/>
</radialGradient>
<linearGradient id="paint2_linear_445_30" x1="52.8097" y1="43.2107" x2="51.0324" y2="43.2875" gradientUnits="userSpaceOnUse">
<stop offset="0.491" stop-color="#DD467C"/>
<stop offset="1" stop-color="#DD467C" stop-opacity="0"/>
</linearGradient>
<linearGradient id="paint3_linear_445_30" x1="39.7056" y1="27.4235" x2="52.0295" y2="28.2192" gradientUnits="userSpaceOnUse">
<stop stop-color="#F83267"/>
<stop offset="1" stop-color="#FF3190"/>
</linearGradient>
<radialGradient id="paint4_radial_445_30" cx="0" cy="0" r="1" gradientUnits="userSpaceOnUse" gradientTransform="translate(44.116 30.2563) rotate(-51.704) scale(11.936 10.2907)">
<stop offset="0.757" stop-color="#E76CBE" stop-opacity="0"/>
<stop offset="0.951" stop-color="#E76CBE"/>
</radialGradient>
<radialGradient id="paint5_radial_445_30" cx="0" cy="0" r="1" gradientUnits="userSpaceOnUse" gradientTransform="translate(49.6263 26.7341) rotate(164.468) scale(8.23518 3.6173)">
<stop stop-color="#FF5898"/>
<stop offset="1" stop-color="#FF5898" stop-opacity="0"/>
</radialGradient>
<linearGradient id="paint6_linear_445_30" x1="31.2939" y1="47.1526" x2="30.2774" y2="27.6374" gradientUnits="userSpaceOnUse">
<stop stop-color="#CCBBC0"/>
<stop offset="1" stop-color="#EAD2EC"/>
</linearGradient>
<radialGradient id="paint7_radial_445_30" cx="0" cy="0" r="1" gradientUnits="userSpaceOnUse" gradientTransform="translate(32.5284 21.2025) rotate(79.367) scale(26.0577 48.9817)">
<stop offset="0.811" stop-color="#E7E5E5" stop-opacity="0"/>
<stop offset="1" stop-color="#E7E5E5"/>
</radialGradient>
<radialGradient id="paint8_radial_445_30" cx="0" cy="0" r="1" gradientUnits="userSpaceOnUse" gradientTransform="translate(49.4729 36.9197) rotate(164.885) scale(15.3184 7.19953)">
<stop offset="0.281" stop-color="#B5A3A5"/>
<stop offset="1" stop-color="#B5A3A5" stop-opacity="0"/>
</radialGradient>
<radialGradient id="paint9_radial_445_30" cx="0" cy="0" r="1" gradientUnits="userSpaceOnUse" gradientTransform="translate(51.5062 41.2947) rotate(148.189) scale(13.58 2.30109)">
<stop offset="0.208" stop-color="#B28F96"/>
<stop offset="1" stop-color="#B28F96" stop-opacity="0"/>
</radialGradient>
<radialGradient id="paint10_radial_445_30" cx="0" cy="0" r="1" gradientUnits="userSpaceOnUse" gradientTransform="translate(13.8009 34.779) rotate(-0.902031) scale(20.5859 6.3917)">
<stop stop-color="#FAECF1"/>
<stop offset="1" stop-color="#FAECF1" stop-opacity="0"/>
</radialGradient>
<linearGradient id="paint11_linear_445_30" x1="28.187" y1="40.5601" x2="20.9572" y2="32.8957" gradientUnits="userSpaceOnUse">
<stop stop-color="#A796A0"/>
<stop offset="1" stop-color="#A5959F"/>
</linearGradient>
<radialGradient id="paint12_radial_445_30" cx="0" cy="0" r="1" gradientUnits="userSpaceOnUse" gradientTransform="translate(24.8678 36.3939) rotate(-48.186) scale(5.24903)">
<stop offset="0.587" stop-color="#93859B"/>
<stop offset="1" stop-color="#93859B" stop-opacity="0"/>
</radialGradient>
<radialGradient id="paint13_radial_445_30" cx="0" cy="0" r="1" gradientUnits="userSpaceOnUse" gradientTransform="translate(27.2931 33.6873) rotate(131.814) scale(7.57123 6.9629)">
<stop stop-color="#72CDFF"/>
<stop offset="0.738" stop-color="#66ACFF"/>
<stop offset="1" stop-color="#3B57F4"/>
</radialGradient>
<radialGradient id="paint14_radial_445_30" cx="0" cy="0" r="1" gradientUnits="userSpaceOnUse" gradientTransform="translate(53.6854 34.5307) rotate(-3.18601) scale(9.07258 7.13126)">
<stop stop-color="#D46213"/>
<stop offset="1" stop-color="#FF9542"/>
</radialGradient>
<radialGradient id="paint15_radial_445_30" cx="0" cy="0" r="1" gradientUnits="userSpaceOnUse" gradientTransform="translate(58.474 28.9128) rotate(90.628) scale(11.2102 11.8137)">
<stop offset="0.871" stop-color="#FFC484" stop-opacity="0"/>
<stop offset="1" stop-color="#FFC484"/>
</radialGradient>
<linearGradient id="paint16_linear_445_30" x1="54.0824" y1="39.695" x2="53.309" y2="27.6699" gradientUnits="userSpaceOnUse">
<stop stop-color="#452860"/>
<stop offset="1" stop-color="#51509F"/>
</linearGradient>
<radialGradient id="paint17_radial_445_30" cx="0" cy="0" r="1" gradientUnits="userSpaceOnUse" gradientTransform="translate(52.3597 39.2022) rotate(-60.3575) scale(2.5475 2.25078)">
<stop stop-color="#8E839A"/>
<stop offset="1" stop-color="#8E839A" stop-opacity="0"/>
</radialGradient>
<radialGradient id="paint18_radial_445_30" cx="0" cy="0" r="1" gradientUnits="userSpaceOnUse" gradientTransform="translate(52.926 37.6857) rotate(-90.2503) scale(9.70672 5.08807)">
<stop offset="0.86" stop-color="#6175B9" stop-opacity="0"/>
<stop offset="1" stop-color="#6175B9"/>
</radialGradient>
<linearGradient id="paint19_linear_445_30" x1="6.98297" y1="37.5564" x2="15.0933" y2="37.105" gradientUnits="userSpaceOnUse">
<stop stop-color="#FF3745"/>
<stop offset="1" stop-color="#ED224B"/>
</linearGradient>
<radialGradient id="paint20_radial_445_30" cx="0" cy="0" r="1" gradientUnits="userSpaceOnUse" gradientTransform="translate(9.02644 36.2986) rotate(-3.186) scale(12.8856 3.09328)">
<stop offset="0.189" stop-color="#FF5971"/>
<stop offset="1" stop-color="#FF5971" stop-opacity="0"/>
</radialGradient>
<linearGradient id="paint21_linear_445_30" x1="14.9747" y1="36.4853" x2="14.1483" y2="36.549" gradientUnits="userSpaceOnUse">
<stop stop-color="#D2575E"/>
<stop offset="1" stop-color="#F93251" stop-opacity="0"/>
</linearGradient>
<linearGradient id="paint22_linear_445_30" x1="38.0879" y1="35.6345" x2="52.3979" y2="34.838" gradientUnits="userSpaceOnUse">
<stop stop-color="#FF2644"/>
<stop offset="1" stop-color="#FF2982"/>
</linearGradient>
<radialGradient id="paint23_radial_445_30" cx="0" cy="0" r="1" gradientUnits="userSpaceOnUse" gradientTransform="translate(50.9357 42.1862) rotate(-159.051) scale(11.6528 3.05062)">
<stop stop-color="#FF95AF"/>
<stop offset="1" stop-color="#FF95AF" stop-opacity="0"/>
</radialGradient>
<radialGradient id="paint24_radial_445_30" cx="0" cy="0" r="1" gradientUnits="userSpaceOnUse" gradientTransform="translate(52.8346 42.0274) rotate(-93.4816) scale(7.20346 2.12783)">
<stop offset="0.382" stop-color="#E14678"/>
<stop offset="1" stop-color="#E14678" stop-opacity="0"/>
</radialGradient>
<radialGradient id="paint25_radial_445_30" cx="0" cy="0" r="1" gradientUnits="userSpaceOnUse" gradientTransform="translate(44.4186 36.9475) rotate(-53.5117) scale(11.5734 12.3331)">
<stop offset="0.832" stop-color="#E67BC7" stop-opacity="0"/>
<stop offset="1" stop-color="#E67BC7"/>
</radialGradient>
<linearGradient id="paint26_linear_445_30" x1="40.5426" y1="35.6418" x2="49.8394" y2="34.9163" gradientUnits="userSpaceOnUse">
<stop stop-color="#FF5970"/>
<stop offset="1" stop-color="#FF5794"/>
</linearGradient>
</defs>
</svg>
